<?xml version="1.0" encoding="utf-8"?>
<!-- Generator: Adobe Illustrator 22.1.0, SVG Export Plug-In . SVG Version: 6.00 Build 0)  -->
<svg version="1.0" id="Layer_1" xmlns="http://www.w3.org/2000/svg" xmlns:xlink="http://www.w3.org/1999/xlink" x="0px" y="0px"
	 viewBox="0 0 452.2 559.6" style="enable-background:new 0 0 452.2 559.6;" xml:space="preserve">
<style type="text/css">
	.st0{fill:#FFFFFF;stroke:#153D8A;stroke-width:3;stroke-miterlimit:10;}
	.st1{fill:#153D8A;}
</style>
<g>
	<path class="st0" d="M14,393.9c0,11,9.5,20,21.2,20h382c11.7,0,21.2-8.9,21.2-20V34c0-11-9.5-20-21.2-20h-382C23.5,14,14,23,14,34
		V393.9z"/>
</g>
<polygon class="st1" points="55,147.8 140.4,147.8 140.4,357.2 209.9,357.2 209.9,147.8 210.4,87.5 54.8,87.5 "/>
<g>
	<path class="st1" d="M397.7,174.1c0-14.3-2.5-27.2-7.4-38.9c-4.9-11.7-12.1-21.4-21.5-29.2c-8-6.7-17.8-11.5-29.3-14.3
		c-11.5-2.8-26.1-4.2-35.3-4.2h-72.6v269.1h65.1l0-19.8v-194l0,0l0,0c10.8,0.8,18.8,2.9,23.8,6.4c6.5,4.5,9.8,12.1,9.8,22.8
		c0,9-2.3,15.7-6.7,20.4l32.5,57.8c4.6-2.1,8.8-4.5,12.7-7.5c9.5-7.4,16.7-16.9,21.6-28.5C395.3,202.7,397.7,189.3,397.7,174.1"/>
</g>
<g>
	<path class="st1" d="M22.7,525.7v-53.9H6.9v-16.7h50.9v16.7H41.9v53.9H22.7z"/>
	<path class="st1" d="M61.7,525.7V477h16.2v11.5c1.7-4.2,4-7.3,6.8-9.4c2.9-2.1,6.4-3.1,10.5-3.1c0.7,0,1.4,0,2,0.1
		c0.7,0,1.4,0.1,2.1,0.2l-1.6,15.6c-1-0.4-2-0.6-3-0.8c-1-0.2-2-0.2-2.9-0.2c-4.2,0-7.4,1.3-9.7,3.8c-2.3,2.6-3.4,6.2-3.4,10.9v20.2
		H61.7z"/>
	<path class="st1" d="M155.6,477v24.9c0,5.5-0.4,9.6-1.3,12.2c-0.9,2.7-2.4,5-4.5,7.1c-2.2,2.2-4.8,3.8-8.1,4.8
		c-3.2,1.1-7,1.6-11.3,1.6c-4.3,0-8.1-0.5-11.3-1.6c-3.2-1.1-5.9-2.7-8.2-4.8c-2.1-2-3.6-4.3-4.4-7c-0.9-2.7-1.3-6.8-1.3-12.3V477
		h16.4v26c0,4.1,0.7,7,2,8.8c1.3,1.8,3.5,2.7,6.6,2.7c3.1,0,5.2-0.9,6.6-2.7c1.3-1.8,2-4.7,2-8.9v-26H155.6z"/>
	<path class="st1" d="M218.4,504.8h-37c0,3.8,1,6.7,2.9,8.7c1.9,2,4.6,3.1,8.1,3.1c2.6,0,4.8-0.5,6.6-1.5c1.8-1,3.1-2.4,4.1-4.4
		l12.9,5.2c-1.5,3.7-4.3,6.6-8.2,8.6c-3.9,2-8.7,3-14.4,3c-8.5,0-15.3-2.4-20.4-7.1c-5.1-4.7-7.7-10.9-7.7-18.6
		c0-7.6,2.6-13.9,7.7-18.9c5.1-5,11.6-7.5,19.5-7.5c8.1,0,14.4,2.5,19.1,7.6c4.7,5.1,7,12,7,20.9V504.8z M201.5,495.1
		c-0.3-2.8-1.4-5-3.2-6.7c-1.8-1.7-4-2.5-6.6-2.5c-2.8,0-5,0.8-6.7,2.3c-1.7,1.5-2.8,3.8-3.3,6.9H201.5z"/>
	<path class="st1" d="M228.4,547.2V477h15.8v8.2c2.2-3.3,4.6-5.7,7.4-7.3c2.7-1.6,5.8-2.4,9.1-2.4c6.8,0,12.3,2.3,16.3,7
		c4.1,4.7,6.1,11,6.1,19c0,7.8-2,14.1-6,18.9c-4,4.8-9.3,7.2-15.8,7.2c-4.1,0-7.5-0.8-10-2.3c-2.6-1.5-4.9-4-6.9-7.5
		c0.2,1,0.3,2.1,0.4,3.5c0.1,1.4,0.1,3.1,0.1,5.1v20.7H228.4z M243.6,501.5c0,3.8,1,6.8,3,9c2,2.2,4.7,3.3,8.2,3.3
		c3.5,0,6.2-1.1,8.2-3.3c2-2.2,3-5.2,3-9s-1-6.8-3-9c-2-2.2-4.7-3.3-8.2-3.3c-3.5,0-6.2,1.1-8.2,3.3S243.6,497.7,243.6,501.5z"/>
	<path class="st1" d="M293.9,525.7V451h17.2v74.7H293.9z"/>
	<path class="st1" d="M376.5,477v48.7h-15.8v-7.9c-2.3,3.4-4.8,5.8-7.6,7.4c-2.8,1.6-6.1,2.4-9.9,2.4c-6.5,0-11.7-2.4-15.6-7.1
		c-3.9-4.7-5.8-11.1-5.8-19.1c0-7.9,2-14.2,6.1-18.9c4.1-4.7,9.5-7,16.4-7c3.7,0,6.8,0.8,9.5,2.3c2.7,1.6,4.9,4,6.8,7.2v-8H376.5z
		 M361.4,501.3c0-3.8-1-6.8-3-9c-2-2.2-4.8-3.3-8.3-3.3s-6.3,1.1-8.3,3.3c-2,2.2-3,5.2-3,9c0,3.8,1,6.8,3,9s4.8,3.3,8.2,3.3
		c3.5,0,6.3-1.1,8.3-3.3C360.4,508.1,361.4,505.1,361.4,501.3z"/>
	<path class="st1" d="M389.4,525.7V477h15.7v9.9c2.3-4,4.9-6.8,7.9-8.7c3-1.8,6.6-2.7,10.8-2.7c3.1,0,6,0.5,8.4,1.5
		c2.5,1,4.5,2.5,6,4.4c1.3,1.6,2.2,3.6,2.7,6c0.5,2.3,0.8,5.8,0.8,10.5v27.9h-17.2v-26.1c0-3.9-0.6-6.7-1.9-8.5
		c-1.3-1.8-3.3-2.7-6.1-2.7c-3.6,0-6.2,1.3-7.8,4c-1.6,2.6-2.5,6.9-2.5,12.8v20.4H389.4z"/>
</g>
</svg>
