<svg id="Layer_1" data-name="Layer 1" xmlns="http://www.w3.org/2000/svg" viewBox="0 0 434.913 534.646">
  <defs>
    <style>
      .cls-1 {
        fill: none;
        stroke: #fff;
        stroke-miterlimit: 10;
        stroke-width: 3px;
      }

      .cls-2 {
        fill: #fff;
      }
    </style>
  </defs>
  <title>Trueplan main logo white</title>
  <path class="cls-1" d="M14.041,393.856c0,11.036,9.5,19.985,21.219,19.985H417.213c11.72,0,21.219-8.949,21.219-19.985V34.039c0-11.036-9.5-19.992-21.219-19.992H35.26c-11.72,0-21.219,8.956-21.219,19.992Z" transform="translate(-6.873 -12.547)"/>
  <polygon class="cls-2" points="48.105 135.235 133.553 135.235 133.553 344.62 203.021 344.62 203.021 135.235 203.487 74.99 47.907 74.99 48.105 135.235"/>
  <path class="cls-2" d="M397.693,174.072q0-21.41-7.4-38.912a75.1,75.1,0,0,0-21.5-29.167Q356.788,95.9,339.543,91.719a168.891,168.891,0,0,0-35.3-4.182H231.627V356.6h65.124l.007-19.809V142.782h0c10.846.811,18.822,2.919,23.807,6.389q9.753,6.791,9.753,22.813c0,8.956-2.3,15.662-6.657,20.373l32.46,57.826a63.814,63.814,0,0,0,12.672-7.51A69.951,69.951,0,0,0,390.387,214.2q7.309-17.316,7.306-40.132" transform="translate(-6.873 -12.547)"/>
  <g>
    <path class="cls-2" d="M22.685,525.692V471.8H6.873v-16.68H57.731V471.8H41.919v53.895Z" transform="translate(-6.873 -12.547)"/>
    <path class="cls-2" d="M61.678,525.692V477h16.2v11.473a20.671,20.671,0,0,1,6.845-9.4,17.468,17.468,0,0,1,10.509-3.134q1.012,0,2.048.072t2.1.217l-1.639,15.619a18.245,18.245,0,0,0-5.929-1.013q-6.267,0-9.666,3.833t-3.4,10.87v20.15Z" transform="translate(-6.873 -12.547)"/>
    <path class="cls-2" d="M155.632,477v24.874q0,8.244-1.326,12.221a17.652,17.652,0,0,1-4.459,7.063,20.067,20.067,0,0,1-8.05,4.82,36.238,36.238,0,0,1-11.329,1.591,35.825,35.825,0,0,1-11.256-1.591,21.333,21.333,0,0,1-8.171-4.82,16.631,16.631,0,0,1-4.435-7.015q-1.3-4.024-1.3-12.269V477H121.7v25.983q0,6.123,2.024,8.846t6.556,2.724q4.579,0,6.58-2.676t2-8.894V477Z" transform="translate(-6.873 -12.547)"/>
    <path class="cls-2" d="M218.446,504.771H181.423q.048,5.641,2.893,8.7t8.05,3.062a13.491,13.491,0,0,0,6.58-1.471,9.588,9.588,0,0,0,4.074-4.362l12.919,5.206a16.826,16.826,0,0,1-8.2,8.629,31.134,31.134,0,0,1-14.414,3.037q-12.727,0-20.416-7.062t-7.689-18.632a25.332,25.332,0,0,1,7.689-18.9q7.688-7.521,19.451-7.521,12.1,0,19.09,7.617t6.99,20.873Zm-16.921-9.689a10.429,10.429,0,0,0-3.157-6.652,9.264,9.264,0,0,0-6.581-2.507,9.461,9.461,0,0,0-6.676,2.29,11.879,11.879,0,0,0-3.3,6.869Z" transform="translate(-6.873 -12.547)"/>
    <path class="cls-2" d="M228.377,547.192V477h15.812v8.2a23.163,23.163,0,0,1,7.376-7.328,17.637,17.637,0,0,1,9.11-2.41q10.269,0,16.342,7.015t6.074,19.018q0,11.666-6.049,18.872a21.736,21.736,0,0,1-25.839,4.941,20.009,20.009,0,0,1-6.918-7.472,33.88,33.88,0,0,1,.361,3.519q.12,2.074.121,5.11v20.729Zm15.233-45.7q0,5.688,2.965,8.966a10.459,10.459,0,0,0,8.171,3.278,10.616,10.616,0,0,0,8.22-3.278q3.012-3.277,3.012-8.966t-2.988-8.967a10.6,10.6,0,0,0-8.243-3.278,10.459,10.459,0,0,0-8.171,3.278Q243.61,495.8,243.61,501.493Z" transform="translate(-6.873 -12.547)"/>
    <path class="cls-2" d="M293.937,525.692v-74.72h17.21v74.72Z" transform="translate(-6.873 -12.547)"/>
    <path class="cls-2" d="M376.466,477v48.688H360.7v-7.906a22.6,22.6,0,0,1-7.592,7.424,19.958,19.958,0,0,1-9.907,2.362q-9.737,0-15.57-7.11T321.8,501.4q0-11.906,6.1-18.921t16.414-7.015a18.375,18.375,0,0,1,9.473,2.338,19.5,19.5,0,0,1,6.821,7.207v-8Zm-15.089,24.3q0-5.688-3.036-9.015a12,12,0,0,0-16.56-.024q-3.013,3.3-3.013,9.039,0,5.689,3.037,8.967a12.067,12.067,0,0,0,16.535,0Q361.378,506.988,361.378,501.3Z" transform="translate(-6.873 -12.547)"/>
    <path class="cls-2" d="M389.434,525.692V477h15.715v9.882a23.794,23.794,0,0,1,7.906-8.677,20.173,20.173,0,0,1,10.75-2.748,21.949,21.949,0,0,1,8.412,1.519,14.867,14.867,0,0,1,6,4.363,15.094,15.094,0,0,1,2.748,5.978,49.964,49.964,0,0,1,.819,10.509v27.863H424.577v-26.08q0-5.832-1.9-8.484t-6.1-2.651q-5.351,0-7.81,3.953t-2.458,12.823v20.439Z" transform="translate(-6.873 -12.547)"/>
  </g>
</svg>
